<svg width="200" height="200" viewBox="0 0 200 200" fill="none" xmlns="http://www.w3.org/2000/svg">
  <!-- Compass Rose -->
  <g transform="translate(140, 50)">
    <!-- Center main star - larger -->
    <path d="M 0 -20 L 8 -8 L 20 0 L 8 8 L 0 20 L -8 8 L -20 0 L -8 -8 Z" fill="#3b46d9" />
    
    <!-- North point -->
    <path d="M 0 -28 L 6 -18 L 0 -10 L -6 -18 Z" fill="#4f46e5" />
    <!-- NE small star -->
    <path d="M 18 -16 L 22 -12 L 18 -8 L 14 -12 Z" fill="#a855f7" />
    <!-- East point - gradient toward cyan -->
    <path d="M 28 0 L 18 6 L 10 0 L 18 -6 Z" fill="#06b6d4" />
    <!-- SE small star -->
    <path d="M 16 18 L 20 22 L 16 26 L 12 22 Z" fill="#a855f7" />
    <!-- South point -->
    <path d="M 0 30 L 6 20 L 0 12 L -6 20 Z" fill="#4f46e5" />
    <!-- SW small star -->
    <path d="M -16 18 L -12 22 L -16 26 L -20 22 Z" fill="#8b5cf6" />
    <!-- West small star -->
    <path d="M -18 -4 L -14 0 L -18 4 L -22 0 Z" fill="#4f46e5" />
  </g>
  
  <!-- Curved pathway arrows -->
  <!-- Outermost arc -->
  <path d="M 80 140 Q 60 150 40 160 Q 20 170 10 185" stroke="#06b6d4" strokeWidth="12" fill="none" strokeLinecap="round" opacity="0.6" />
  <!-- Middle arc -->
  <path d="M 95 130 Q 70 145 45 165 Q 25 180 8 195" stroke="#7c3aed" strokeWidth="11" fill="none" strokeLinecap="round" opacity="0.75" />
  <!-- Inner arc -->
  <path d="M 110 120 Q 85 138 60 165 Q 35 188 12 205" stroke="#4f46e5" strokeWidth="10" fill="none" strokeLinecap="round" />
  
  <!-- Arrow head -->
  <path d="M 8 205 L -5 195 L 0 182 Z" fill="#4f46e5" />
  <path d="M 10 185 L -2 177 L 2 167 Z" fill="#06b6d4" opacity="0.6" />
</svg>